<?xml version="1.0" encoding="utf-8"?>
<!-- Generator: Adobe Illustrator 25.0.1, SVG Export Plug-In . SVG Version: 6.00 Build 0)  -->
<svg version="1.1" id="Layer_1" xmlns="http://www.w3.org/2000/svg" xmlns:xlink="http://www.w3.org/1999/xlink" x="0px" y="0px"
	 viewBox="0 0 936 261.5" style="enable-background:new 0 0 936 261.5;" xml:space="preserve">
<style type="text/css">
	.st0{fill:#00D1FF;}
	.st1{fill:#D9DBDC;}
	.st2{fill:#231F20;}
</style>
<path class="st0" d="M162.3,99.2c6.6,6.6,11,15.2,12.5,24.5l19.1-19.1l47.8-47.8l-37-37l-47.8,47.8V0h-52.3v94.6
	C122.3,81.8,146.8,83.7,162.3,99.2z"/>
<path class="st0" d="M174.8,137.8c-3.8,24.3-26.6,40.9-50.9,37c-7-1.1-13.6-3.8-19.2-8v94.6h52.3v-67.6l47.8,47.8l37-37l-47.8-47.8
	L174.8,137.8z"/>
<path class="st1" d="M99.2,162.3c-17.4-17.4-17.4-45.7,0-63.1c1.7-1.7,3.5-3.2,5.4-4.6v-27L56.8,19.8l-37,37l47.8,47.8H0v52.3h67.6
	l-47.8,47.8l37,37l47.8-47.8v-27C102.7,165.5,100.9,164,99.2,162.3z"/>
<path class="st2" d="M174.8,137.8c-3.9,24.3-26.8,40.9-51.1,37c-24.3-3.9-40.9-26.8-37-51.1c1.5-9.3,5.9-17.9,12.5-24.5
	c1.7-1.7,3.5-3.2,5.4-4.6c19.9-14.5,47.7-10.1,62.2,9.8c4.1,5.7,6.9,12.3,8,19.3l19.1-19.1l47.8-47.8l-37-37l-47.8,47.8V0h-52.3
	v67.6L56.8,19.8l-37,37l47.8,47.8H0v52.3h67.6l-47.8,47.8l37,37l47.8-47.8v67.6h52.3v-67.6l47.8,47.8l37-37l-47.8-47.8L174.8,137.8z
	 M164,74.7l40.8-40.8l22.9,22.9l-40.8,40.8l-7.8,7.8c-2.6-4.9-5.8-9.3-9.7-13.2c-3.9-3.9-8.3-7.2-13.1-9.7L164,74.7z M147,10v68.6
	c-10.5-3.2-21.8-3.2-32.3,0V10L147,10z M34,56.8l22.8-22.9l37.8,37.8v18.1c-0.9,0.8-1.7,1.5-2.5,2.3c-3.9,3.9-7.2,8.3-9.7,13.2
	l-7.7-7.7L34,56.8z M10,146.9v-32.4h68.6c-3.2,10.5-3.2,21.8,0,32.4H10z M94.7,189.7l-37.9,37.8l-22.9-22.9L74.7,164l7.7-7.7
	c2.6,4.8,5.8,9.3,9.7,13.1c0.8,0.8,1.6,1.6,2.5,2.3L94.7,189.7z M146.9,193.9v57.6h-32.4v-68.6c10.5,3.2,21.8,3.2,32.3,0
	L146.9,193.9z M204.7,227.6L164,186.8l-7.7-7.7c9.7-5.2,17.7-13.1,22.9-22.9l7.8,7.8l40.8,40.8L204.7,227.6z"/>
<path d="M343.8,82c0,4.3-0.7,8.6-2.2,12.6c-1.4,3.7-3.6,7.1-6.4,10c-2.8,2.9-6.2,5.1-9.9,6.6c-8.2,3.2-17.4,3.2-25.6,0
	c-3.7-1.5-7.1-3.7-9.9-6.6c-2.8-2.9-5-6.3-6.4-10c-3-8.1-3-17.1,0-25.2c1.4-3.7,3.6-7.1,6.4-10c2.8-2.9,6.2-5.1,9.9-6.6
	c4.1-1.6,8.4-2.4,12.8-2.4c3,0,6,0.3,8.8,1.1c2.7,0.7,5.2,1.7,7.6,3.1c2.3,1.3,4.4,2.9,6.2,4.8c1.8,1.9,3.4,4,4.7,6.3
	c1.3,2.4,2.3,5,2.9,7.6C343.4,76.2,343.8,79.1,343.8,82z M332,82c0-3.1-0.4-6.2-1.4-9.1c-0.8-2.5-2.1-4.9-3.9-6.9
	c-1.7-1.9-3.8-3.4-6.1-4.3c-5.2-2-11-2-16.3,0c-2.3,1-4.5,2.4-6.1,4.3c-1.8,2-3.1,4.3-3.9,6.9c-0.9,2.9-1.4,6-1.3,9.1
	c0,3.1,0.4,6.2,1.4,9.1c0.8,2.5,2.1,4.9,3.9,6.9c1.7,1.9,3.8,3.3,6.1,4.3c5.2,2,11,2,16.3,0c2.3-1,4.4-2.4,6.1-4.3
	c1.8-2,3.1-4.3,3.9-6.8C331.6,88.2,332.1,85.1,332,82z"/>
<path d="M361.5,75.1c1.7-2,3.8-3.6,6.1-4.9c2.5-1.3,5.2-1.9,8-1.9c2.3,0,4.5,0.5,6.6,1.5c2,1,3.8,2.5,5.1,4.3c1.5,2.1,2.7,4.5,3.3,7
	c0.8,3.1,1.2,6.3,1.2,9.6c0,3.1-0.4,6.2-1.3,9.1c-0.8,2.6-2.1,5.1-3.8,7.3c-1.6,2-3.6,3.7-5.9,4.8c-2.4,1.2-5.1,1.8-7.8,1.7
	c-2.2,0.1-4.3-0.3-6.3-1.1c-1.7-0.7-3.3-1.8-4.6-3.1v18h-10.5V69.1h6.5c1.2-0.1,2.3,0.7,2.6,1.9L361.5,75.1z M362.1,101.6
	c1,1.3,2.4,2.4,3.9,3.1c1.5,0.6,3,0.9,4.6,0.9c1.5,0,3-0.3,4.3-0.9c1.3-0.6,2.4-1.6,3.3-2.7c1-1.4,1.7-3,2.1-4.6
	c0.5-2.2,0.8-4.4,0.7-6.6c0-2.2-0.2-4.4-0.6-6.5c-0.3-1.5-0.9-3-1.8-4.3c-0.7-1-1.7-1.9-2.8-2.4c-1.2-0.5-2.5-0.8-3.7-0.8
	c-2-0.1-3.9,0.4-5.6,1.4c-1.7,1-3.1,2.4-4.4,3.9L362.1,101.6z"/>
<path d="M408.2,92.3c0.1,2,0.5,4,1.2,5.8c0.5,1.5,1.4,2.9,2.5,4.1c1,1.1,2.3,1.9,3.6,2.4c1.5,0.5,3.1,0.8,4.7,0.8
	c1.5,0,3-0.2,4.4-0.6c1.1-0.3,2.2-0.8,3.2-1.3c0.9-0.5,1.7-0.9,2.4-1.3c0.6-0.4,1.3-0.6,2-0.6c0.8-0.1,1.6,0.3,2,1l3,3.8
	c-1.1,1.3-2.5,2.5-3.9,3.4c-1.4,0.9-3,1.7-4.5,2.2c-1.6,0.6-3.2,1-4.8,1.2c-1.6,0.2-3.2,0.3-4.8,0.3c-2.9,0-5.8-0.5-8.5-1.5
	c-2.6-1-4.9-2.5-6.8-4.5c-2-2.1-3.6-4.6-4.6-7.3c-1.2-3.3-1.7-6.7-1.7-10.2c0-2.9,0.5-5.7,1.5-8.4c0.9-2.5,2.3-4.9,4.2-6.9
	c1.9-2,4.1-3.6,6.6-4.6c2.8-1.2,5.8-1.8,8.8-1.7c2.6,0,5.2,0.4,7.6,1.3c2.3,0.8,4.3,2.2,6,3.9c1.7,1.8,3.1,3.9,4,6.2
	c1,2.7,1.5,5.6,1.4,8.4c0.1,1.1-0.1,2.2-0.5,3.2c-0.5,0.6-1.2,0.9-2,0.8L408.2,92.3z M428.3,86c0-1.3-0.2-2.6-0.6-3.9
	c-0.4-1.2-1-2.3-1.7-3.2c-0.8-0.9-1.8-1.7-2.9-2.2c-1.3-0.5-2.7-0.8-4.1-0.8c-2.7-0.1-5.3,0.8-7.2,2.6c-1.9,2-3.1,4.6-3.4,7.4H428.3
	z"/>
<path d="M455.6,74.5c0.9-0.9,1.8-1.7,2.8-2.5c1-0.7,2-1.4,3.1-1.9c2.4-1.1,5-1.7,7.6-1.7c2.2,0,4.4,0.4,6.4,1.2
	c1.8,0.8,3.4,1.9,4.6,3.4c1.3,1.6,2.3,3.4,2.9,5.3c0.7,2.2,1,4.5,1,6.7v27.9h-10.6V85c0.1-2.2-0.5-4.4-1.8-6.2
	c-1.2-1.5-3.1-2.2-5.6-2.2c-1.8,0-3.5,0.4-5.1,1.2c-1.7,0.9-3.2,2-4.5,3.4v31.7h-10.6V69.1h6.5c1.2-0.1,2.4,0.7,2.7,1.9L455.6,74.5z
	"/>
<path d="M527.9,77h2.7c0.9,0,1.8-0.1,2.7-0.4c0.7-0.3,1.4-0.8,1.8-1.4l17.1-21.6c0.6-0.8,1.4-1.5,2.2-1.9c0.9-0.4,2-0.6,3-0.5h9.9
	l-20.8,25.7c-1,1.4-2.3,2.5-3.8,3.3c0.9,0.3,1.8,0.8,2.5,1.4c0.8,0.7,1.6,1.5,2.2,2.4l21.5,28.9h-10.1c-1.1,0.1-2.1-0.1-3.1-0.6
	c-0.7-0.4-1.3-1-1.7-1.7l-17.5-22.8c-0.5-0.7-1.1-1.3-1.9-1.6c-1-0.4-2-0.5-3.1-0.5h-3.6v27.2h-11.5V51.1h11.5V77z"/>
<path d="M583.2,74.5c0.9-0.9,1.8-1.7,2.8-2.5c1-0.7,2-1.4,3.1-1.9c1.1-0.5,2.3-1,3.5-1.2c1.3-0.3,2.7-0.5,4.1-0.4
	c2.2,0,4.3,0.4,6.4,1.2c1.8,0.8,3.4,1.9,4.6,3.4c1.3,1.5,2.2,3.3,2.8,5.2c0.7,2.2,1,4.5,1,6.7v27.9H601V85c0.1-2.2-0.5-4.4-1.8-6.2
	c-1.2-1.5-3.1-2.2-5.6-2.2c-1.8,0-3.5,0.4-5.1,1.2c-1.7,0.9-3.2,2-4.5,3.4v31.7h-10.6V69.1h6.5c1.2-0.1,2.4,0.7,2.7,1.9L583.2,74.5z
	"/>
<path d="M640.9,68.4c3,0,6,0.5,8.9,1.6c2.6,1,4.9,2.5,6.8,4.5c1.9,2,3.4,4.4,4.4,7.1c2.1,6.1,2.1,12.7,0,18.8
	c-0.9,2.7-2.4,5.1-4.4,7.1c-1.9,2-4.3,3.5-6.8,4.5c-2.8,1.1-5.8,1.6-8.9,1.6c-3,0-6.1-0.5-8.9-1.6c-2.6-1-4.9-2.5-6.9-4.5
	c-1.9-2-3.4-4.5-4.4-7.1c-2.1-6.1-2.1-12.7,0-18.8c0.9-2.6,2.4-5.1,4.4-7.1c1.9-2,4.3-3.5,6.9-4.5C634.8,68.9,637.9,68.4,640.9,68.4
	z M640.9,105.5c3.7,0,6.4-1.2,8.1-3.7c1.7-2.5,2.6-6,2.6-10.8c0-4.7-0.9-8.3-2.6-10.8s-4.5-3.7-8.1-3.7c-3.7,0-6.5,1.2-8.2,3.7
	S630,86.3,630,91s0.9,8.3,2.7,10.8S637.2,105.5,640.9,105.5z"/>
<path d="M732.5,69.1l-13.9,43.9h-8.5c-1,0-1.6-0.6-2-1.9l-7.9-25.3c-0.3-0.9-0.5-1.7-0.7-2.5s-0.4-1.7-0.5-2.6
	c-0.2,0.9-0.4,1.7-0.6,2.6s-0.5,1.7-0.7,2.6l-8,25.3c-0.2,1.1-1.1,1.9-2.3,1.9h-8.1l-13.9-43.9h8.4c0.7,0,1.4,0.2,2,0.6
	c0.5,0.3,0.9,0.8,1.1,1.4l6.3,23.4c0.3,1.3,0.6,2.5,0.8,3.8s0.4,2.4,0.6,3.7c0.3-1.2,0.6-2.4,1-3.7s0.7-2.5,1.1-3.8L694,71
	c0.2-0.6,0.5-1.1,1-1.4c0.5-0.4,1.2-0.6,1.8-0.6h4.7c0.7,0,1.3,0.2,1.9,0.6c0.5,0.3,0.9,0.8,1.1,1.4l7,23.5c0.4,1.3,0.7,2.5,1,3.8
	c0.3,1.2,0.6,2.5,1,3.7c0.4-2.5,0.9-5,1.6-7.5l6.5-23.4c0.2-0.6,0.6-1.1,1.1-1.4c0.5-0.4,1.2-0.6,1.8-0.6L732.5,69.1z"/>
<path d="M749.2,49.4v63.5h-10.6V49.4H749.2z"/>
<path d="M767.8,92.3c0.1,2,0.5,4,1.2,5.8c0.5,1.5,1.4,2.9,2.5,4.1c1,1.1,2.3,1.9,3.7,2.4c1.5,0.5,3.1,0.8,4.7,0.8
	c1.5,0,3-0.2,4.4-0.6c1.1-0.3,2.2-0.8,3.2-1.3c0.9-0.5,1.7-0.9,2.4-1.3c0.6-0.4,1.3-0.6,2-0.6c0.8-0.1,1.6,0.3,2,1l3,3.8
	c-1.1,1.3-2.5,2.5-3.9,3.4c-1.4,0.9-3,1.7-4.5,2.2c-1.6,0.6-3.2,1-4.8,1.2c-1.6,0.2-3.2,0.3-4.8,0.3c-2.9,0-5.8-0.5-8.5-1.5
	c-2.6-1-4.9-2.5-6.8-4.5c-2-2.1-3.6-4.6-4.6-7.3c-1.2-3.3-1.7-6.7-1.7-10.2c0-2.9,0.5-5.7,1.5-8.4c0.9-2.6,2.4-4.9,4.2-6.9
	c1.9-2,4.1-3.6,6.6-4.6c2.8-1.2,5.8-1.8,8.8-1.7c2.6,0,5.2,0.4,7.7,1.3c2.3,0.8,4.3,2.2,6,3.9c1.7,1.8,3,3.9,3.9,6.2
	c1,2.7,1.5,5.6,1.4,8.4c0.1,1.1,0,2.2-0.4,3.2c-0.5,0.6-1.2,0.9-2,0.8H767.8z M788,86c0-1.3-0.2-2.6-0.6-3.9c-0.4-1.2-1-2.2-1.7-3.2
	c-0.8-0.9-1.8-1.7-2.9-2.2c-1.3-0.6-2.7-0.8-4.1-0.8c-2.7-0.1-5.3,0.8-7.2,2.6c-1.9,2-3.1,4.6-3.3,7.4L788,86z"/>
<path d="M843.5,49.4v63.5H837c-1.2,0.1-2.4-0.7-2.7-1.9l-0.9-4.2c-1.7,2-3.8,3.7-6.1,4.9c-2.5,1.3-5.2,1.9-8,1.9
	c-2.3,0-4.5-0.5-6.6-1.5c-2-1-3.8-2.5-5.2-4.3c-1.5-2.1-2.7-4.5-3.3-7c-0.8-3.1-1.2-6.3-1.2-9.6c0-3.1,0.4-6.1,1.3-9.1
	c0.8-2.6,2.1-5.1,3.8-7.3c1.6-2,3.6-3.7,5.9-4.8c2.4-1.2,5.1-1.8,7.8-1.7c2.2-0.1,4.3,0.3,6.3,1.2c1.7,0.8,3.3,1.8,4.7,3.1V49.4
	H843.5z M832.9,80.3c-1-1.3-2.4-2.4-3.9-3.1c-1.4-0.6-3-0.9-4.5-0.9c-1.5,0-3,0.3-4.3,0.9c-1.3,0.6-2.4,1.6-3.3,2.7
	c-1,1.4-1.7,3-2.1,4.6c-0.5,2.2-0.8,4.4-0.7,6.6c0,2.2,0.2,4.4,0.6,6.5c0.3,1.5,0.9,3,1.8,4.4c0.7,1.1,1.7,1.9,2.8,2.4
	c1.2,0.5,2.4,0.8,3.7,0.8c2,0.1,3.9-0.4,5.6-1.4c1.7-1,3.1-2.3,4.4-3.9L832.9,80.3z"/>
<path d="M892.4,70.6v3.9c0,1.3-0.8,2-2.3,2.3l-3.9,0.7c0.6,1.6,0.9,3.3,0.9,5c0.1,4-1.8,7.9-4.9,10.3c-1.6,1.3-3.5,2.2-5.5,2.8
	c-2.2,0.7-4.5,1-6.8,1c-0.8,0-1.7,0-2.5-0.1c-0.8-0.1-1.6-0.2-2.3-0.3C863.7,97,863,98,863,99c-0.1,0.9,0.4,1.7,1.2,2
	c1,0.5,2.1,0.8,3.2,0.9c1.5,0.2,3,0.3,4.6,0.3c1.7,0,3.5,0.1,5.2,0.3c1.8,0.1,3.5,0.4,5.3,0.8c1.6,0.3,3.1,0.9,4.6,1.7
	c1.3,0.8,2.4,1.8,3.2,3.1c0.9,1.6,1.3,3.3,1.2,5.1c0,2-0.5,3.9-1.4,5.6c-1,1.9-2.4,3.6-4.2,4.9c-2,1.5-4.3,2.7-6.7,3.4
	c-2.9,0.9-5.9,1.4-9,1.3c-2.9,0-5.8-0.3-8.6-1c-2.2-0.5-4.2-1.4-6.1-2.6c-1.5-0.9-2.7-2.2-3.6-3.7c-0.8-1.3-1.2-2.8-1.2-4.4
	c-0.1-1.9,0.6-3.7,1.9-5.2c1.4-1.5,3.2-2.6,5.1-3.3c-1.1-0.6-2.1-1.4-2.8-2.4c-0.7-1.2-1.1-2.6-1-3.9c0-0.7,0.1-1.4,0.4-2
	c0.3-0.7,0.6-1.4,1.1-2.1c0.5-0.7,1.1-1.4,1.8-1.9c0.8-0.7,1.6-1.2,2.5-1.7c-2.1-1.1-3.9-2.8-5.2-4.8c-1.3-2.1-2-4.5-1.9-7
	c-0.1-4,1.8-7.9,4.9-10.4c1.6-1.3,3.5-2.3,5.5-2.9c2.3-0.7,4.6-1,7-1c1.8,0,3.6,0.2,5.3,0.6c1.6,0.4,3.1,0.9,4.5,1.7L892.4,70.6z
	 M881.8,114.9c0-0.8-0.2-1.5-0.8-2.1c-0.6-0.6-1.3-1-2.1-1.3c-1-0.3-2-0.5-3.1-0.7c-1.2-0.2-2.4-0.2-3.8-0.3l-4.1-0.2
	c-1.4-0.1-2.8-0.2-4.1-0.3c-1.1,0.6-2,1.4-2.8,2.3c-0.7,0.9-1.1,2-1.1,3.1c0,0.8,0.2,1.5,0.6,2.2c0.4,0.7,1.1,1.3,1.8,1.7
	c1,0.5,2.1,0.9,3.3,1.1c1.6,0.3,3.3,0.4,4.9,0.4c1.7,0,3.4-0.1,5.1-0.4c1.2-0.2,2.4-0.7,3.5-1.2c0.8-0.4,1.5-1.1,2-1.9
	C881.6,116.6,881.8,115.7,881.8,114.9z M869.9,89.9c1.2,0,2.3-0.2,3.4-0.5c0.9-0.3,1.7-0.8,2.4-1.5c0.6-0.6,1.1-1.4,1.5-2.3
	c0.3-0.9,0.5-1.9,0.5-2.9c0.1-1.9-0.6-3.8-2-5.2c-1.3-1.3-3.2-1.9-5.8-1.9s-4.5,0.6-5.8,1.9c-1.3,1.4-2,3.2-1.9,5.2
	c0,1,0.2,1.9,0.5,2.9c0.3,0.9,0.8,1.6,1.5,2.3c0.7,0.7,1.5,1.2,2.4,1.5C867.6,89.8,868.7,90,869.9,89.9L869.9,89.9z"/>
<path d="M906.4,92.3c0.1,2,0.5,4,1.2,5.8c0.5,1.5,1.4,2.9,2.5,4.1c1,1.1,2.3,1.9,3.7,2.4c1.5,0.5,3.1,0.8,4.7,0.8
	c1.5,0,3-0.2,4.4-0.6c1.1-0.3,2.2-0.8,3.2-1.3c0.9-0.5,1.7-0.9,2.4-1.3c0.6-0.4,1.3-0.6,2-0.6c0.8-0.1,1.6,0.3,2,1l3,3.8
	c-1.1,1.3-2.5,2.5-3.9,3.4c-1.4,0.9-3,1.7-4.5,2.2c-1.6,0.6-3.2,0.9-4.8,1.2c-1.6,0.2-3.2,0.3-4.8,0.3c-2.9,0-5.8-0.5-8.5-1.5
	c-2.6-1-4.9-2.5-6.8-4.5c-2-2.1-3.6-4.6-4.6-7.3c-1.2-3.3-1.7-6.7-1.7-10.2c0-2.9,0.5-5.7,1.5-8.4c0.9-2.6,2.3-4.9,4.2-6.9
	c1.9-2,4.1-3.6,6.6-4.6c2.8-1.2,5.8-1.8,8.8-1.7c2.6,0,5.2,0.4,7.7,1.3c2.3,0.8,4.3,2.2,6,3.9c1.7,1.8,3.1,3.9,4,6.2
	c1,2.7,1.5,5.5,1.4,8.4c0.1,1.1-0.1,2.2-0.5,3.2c-0.5,0.6-1.2,0.9-2,0.8H906.4z M926.5,86c0-1.3-0.2-2.6-0.6-3.9
	c-0.4-1.2-0.9-2.3-1.7-3.2c-0.8-0.9-1.8-1.7-2.9-2.2c-1.3-0.6-2.7-0.8-4.1-0.8c-2.7-0.1-5.3,0.8-7.2,2.6c-1.9,2-3.1,4.6-3.4,7.4
	L926.5,86z"/>
<path d="M293,152.7v18.5h22.2v6.6H293v23.4h-8.2V146H319v6.7L293,152.7z"/>
<path d="M340,161.6c2.7,0,5.3,0.4,7.8,1.4c2.2,0.9,4.3,2.2,5.9,4c1.7,1.8,3,4,3.8,6.4c1.7,5.4,1.7,11.3,0,16.7
	c-0.8,2.4-2.1,4.5-3.8,6.3c-1.7,1.8-3.7,3.1-5.9,4c-5,1.9-10.6,1.9-15.6,0c-2.3-0.9-4.3-2.2-5.9-4c-1.7-1.8-3-4-3.8-6.3
	c-1.8-5.4-1.8-11.3,0-16.7c0.8-2.4,2.1-4.5,3.8-6.4c1.7-1.8,3.7-3.1,5.9-4C334.7,162,337.3,161.5,340,161.6z M340,196
	c3.7,0,6.4-1.2,8.3-3.7s2.7-6,2.7-10.5c0-4.5-0.9-8-2.7-10.5s-4.6-3.8-8.3-3.8c-3.8,0-6.5,1.2-8.4,3.8s-2.8,6-2.8,10.5
	s0.9,8,2.8,10.5S336.2,196,340,196z"/>
<path d="M399.6,162.2v39.1h-4.5c-0.9,0.1-1.8-0.6-2-1.5l-0.5-3.9c-0.8,0.9-1.7,1.7-2.6,2.5c-0.9,0.7-1.9,1.4-3,1.9
	c-1.1,0.5-2.2,0.9-3.4,1.2c-1.2,0.3-2.5,0.5-3.8,0.4c-1.9,0-3.9-0.3-5.7-1.1c-1.6-0.7-3-1.7-4.1-3c-1.1-1.4-2-3-2.5-4.7
	c-0.6-1.9-0.9-4-0.9-6v-24.9h7.5v24.9c-0.1,2.3,0.5,4.6,1.9,6.5c1.3,1.6,3.2,2.3,5.9,2.3c1.9,0,3.7-0.5,5.4-1.4
	c1.8-1,3.3-2.3,4.7-3.8v-28.6H399.6z"/>
<path d="M417.2,167.6c0.8-0.9,1.7-1.7,2.7-2.5c0.9-0.7,1.9-1.4,2.9-1.9c1.1-0.5,2.2-0.9,3.4-1.2c1.3-0.3,2.5-0.4,3.8-0.4
	c1.9,0,3.9,0.3,5.7,1.1c1.6,0.7,3,1.7,4.1,3c1.1,1.4,2,3,2.5,4.7c0.6,1.9,0.9,4,0.9,6v24.9h-7.5v-24.8c0.1-2.3-0.5-4.6-1.9-6.5
	c-1.3-1.6-3.2-2.3-5.9-2.3c-1.9,0-3.7,0.5-5.4,1.4c-1.8,1-3.3,2.2-4.7,3.7v28.7h-7.5v-39.1h4.5c1-0.1,1.8,0.6,2,1.5L417.2,167.6z"/>
<path d="M485.9,144.5v56.8h-4.5c-1,0.1-1.8-0.6-2-1.5l-0.6-4.5c-1.6,1.9-3.5,3.5-5.7,4.8c-2.2,1.2-4.8,1.8-7.3,1.8
	c-2.1,0-4.2-0.4-6.1-1.3c-1.8-0.9-3.4-2.2-4.6-3.8c-1.4-1.9-2.4-4-3-6.2c-0.7-2.8-1.1-5.7-1-8.6c0-2.7,0.4-5.5,1.2-8.1
	c0.7-2.3,1.8-4.5,3.3-6.5c3-3.8,7.5-5.9,12.4-5.8c4-0.2,7.8,1.4,10.5,4.4v-21.4H485.9z M478.4,171.7c-1-1.4-2.4-2.6-4-3.4
	c-1.5-0.7-3.1-1-4.8-1c-3.1-0.2-6.1,1.2-8,3.7c-1.9,2.5-2.8,6.1-2.8,10.8c0,2.1,0.2,4.3,0.6,6.4c0.3,1.5,1,3,1.9,4.3
	c0.8,1.1,1.8,1.9,3,2.5c1.3,0.5,2.6,0.8,4,0.8c2,0,3.9-0.5,5.6-1.5c1.7-1.1,3.2-2.5,4.5-4.1L478.4,171.7z"/>
<path d="M495.4,167.6c4.1-4.1,9.7-6.3,15.5-6.2c2,0,4,0.3,5.9,1.1c1.7,0.7,3.1,1.7,4.3,3.1c1.2,1.4,2.1,3,2.7,4.7
	c0.6,1.9,0.9,4,0.9,6v24.9h-3.3c-0.6,0-1.2-0.1-1.7-0.4c-0.5-0.3-0.8-0.8-0.9-1.4l-0.8-3.4c-0.9,0.9-2,1.7-3,2.4
	c-1,0.7-2,1.3-3.1,1.8c-1.1,0.5-2.2,0.9-3.4,1.1c-1.3,0.3-2.7,0.4-4,0.4c-1.5,0-2.9-0.2-4.3-0.6c-1.3-0.4-2.5-1.1-3.5-1.9
	c-1-0.9-1.8-2-2.4-3.3c-0.6-1.4-0.9-3-0.9-4.6c0-1.6,0.4-3.1,1.2-4.4c1-1.6,2.4-2.9,4.1-3.8c2.3-1.3,4.8-2.2,7.4-2.8
	c3.7-0.8,7.4-1.2,11.2-1.2v-2.9c0-3-0.6-5.2-1.9-6.6c-1.4-1.5-3.5-2.3-5.5-2.2c-1.4,0-2.8,0.2-4.1,0.6c-1,0.4-2,0.8-2.9,1.4
	c-0.8,0.5-1.5,1-2.1,1.4c-0.5,0.4-1.2,0.6-1.9,0.6c-0.5,0-0.9-0.1-1.3-0.4c-0.4-0.3-0.7-0.6-0.9-1L495.4,167.6z M517.4,183.9
	c-2.6,0.1-5.2,0.3-7.8,0.7c-1.8,0.3-3.5,0.8-5.2,1.5c-1.1,0.5-2.1,1.2-2.9,2.2c-0.6,0.8-0.9,1.8-0.9,2.8c0,0.9,0.1,1.7,0.5,2.5
	c0.3,0.7,0.7,1.3,1.3,1.7c0.6,0.5,1.3,0.8,2,1c0.8,0.2,1.6,0.3,2.4,0.3c1.1,0,2.1-0.1,3.2-0.4c0.9-0.2,1.9-0.6,2.7-1
	c0.9-0.4,1.7-1,2.4-1.6c0.8-0.7,1.6-1.4,2.3-2.1L517.4,183.9z"/>
<path d="M571.4,201.3h-7.5v-33h-19.6v22.9c-0.1,1.3,0.3,2.5,1.1,3.4c0.8,0.8,1.8,1.2,2.9,1.1c0.6,0,1.2-0.1,1.8-0.3
	c0.4-0.2,0.9-0.4,1.3-0.6c0.4-0.2,0.7-0.4,0.9-0.6c0.2-0.2,0.5-0.3,0.7-0.3c0.2,0,0.4,0.1,0.6,0.2c0.2,0.2,0.3,0.3,0.4,0.6l2.2,3.6
	c-1.3,1.2-2.8,2-4.4,2.6c-1.7,0.6-3.5,0.9-5.3,0.9c-3.2,0-5.6-0.9-7.3-2.7c-1.7-1.8-2.6-4.3-2.6-7.6v-23.4h-4.5
	c-0.8,0-1.5-0.6-1.5-1.4c0-0.1,0-0.1,0-0.2v-3l6.4-0.9l1.7-11.7c0.1-0.4,0.3-0.7,0.6-1c0.3-0.3,0.7-0.4,1.1-0.4h3.8v13.1h27.2
	L571.4,201.3z M573.1,149.9c0,0.7-0.1,1.4-0.4,2c-0.3,0.6-0.7,1.2-1.1,1.6c-0.5,0.5-1.1,0.9-1.7,1.1c-0.6,0.3-1.3,0.4-2,0.4
	c-0.7,0-1.4-0.1-2-0.4c-1.2-0.5-2.2-1.5-2.8-2.8c-0.3-0.6-0.4-1.3-0.4-2c0-0.7,0.1-1.4,0.4-2c0.3-0.6,0.6-1.2,1.1-1.7
	c0.5-0.5,1-0.8,1.6-1.1c0.6-0.3,1.3-0.4,2-0.4c0.7,0,1.4,0.1,2,0.4c0.6,0.3,1.2,0.6,1.7,1.1c0.5,0.5,0.9,1.1,1.1,1.7
	C572.9,148.5,573.1,149.2,573.1,149.9z"/>
<path d="M598.9,161.6c2.7,0,5.3,0.4,7.8,1.4c2.2,0.9,4.3,2.2,5.9,4c1.7,1.8,2.9,4,3.8,6.4c1.7,5.4,1.7,11.3,0,16.7
	c-0.8,2.3-2.1,4.5-3.8,6.3c-1.7,1.8-3.7,3.1-5.9,4c-5,1.9-10.6,1.9-15.6,0c-2.3-0.9-4.3-2.2-5.9-4c-1.7-1.8-3-4-3.8-6.3
	c-1.8-5.4-1.8-11.3,0-16.7c0.8-2.4,2.1-4.5,3.8-6.4c1.7-1.8,3.7-3.1,5.9-4C593.6,162,596.2,161.5,598.9,161.6z M598.9,196
	c3.7,0,6.5-1.2,8.3-3.7s2.7-6,2.7-10.5c0-4.5-0.9-8-2.7-10.5c-1.8-2.5-4.6-3.7-8.3-3.8c-3.7,0-6.5,1.2-8.4,3.8
	c-1.8,2.5-2.8,6-2.8,10.5c0,4.5,0.9,8,2.8,10.5C592.4,194.7,595.2,196,598.9,196L598.9,196z"/>
<path d="M633.1,167.6c0.8-0.9,1.7-1.7,2.7-2.5c0.9-0.7,1.9-1.4,3-1.9c1.1-0.5,2.2-0.9,3.3-1.2c1.3-0.3,2.5-0.4,3.8-0.4
	c1.9,0,3.9,0.3,5.7,1.1c1.6,0.7,3,1.7,4.1,3c1.1,1.4,2,3,2.5,4.7c0.6,1.9,0.9,4,0.8,6v24.9h-7.5v-24.8c0.1-2.3-0.5-4.6-1.9-6.5
	c-1.3-1.6-3.2-2.3-5.9-2.3c-1.9,0-3.8,0.5-5.4,1.4c-1.7,1-3.3,2.2-4.7,3.7v28.7H626v-39.1h4.5c1-0.1,1.8,0.6,2,1.5L633.1,167.6z"/>
</svg>
